<?xml version="1.0" standalone="no"?>
<!DOCTYPE svg PUBLIC "-//W3C//DTD SVG 20010904//EN"
 "http://www.w3.org/TR/2001/REC-SVG-20010904/DTD/svg10.dtd">
<svg version="1.0" xmlns="http://www.w3.org/2000/svg"
 width="500.000000pt" height="500.000000pt" viewBox="0 0 500.000000 500.000000"
 preserveAspectRatio="xMidYMid meet">

<g transform="translate(0.000000,500.000000) scale(0.100000,-0.100000)"
fill="#000000" stroke="none">
<path d="M1038 3500 c-45 -24 -75 -61 -88 -111 -7 -25 -10 -322 -8 -871 3
-720 5 -836 18 -857 28 -46 45 -63 85 -84 l40 -22 1389 -3 c1222 -2 1396 -1
1440 13 56 17 80 34 114 82 l22 31 0 857 c0 851 0 858 -21 895 -11 20 -39 49
-62 63 l-41 27 -1426 0 c-1389 -1 -1426 -1 -1462 -20z m2476 -222 c39 -137
126 -229 254 -268 l42 -13 0 -457 0 -457 -30 -6 c-54 -11 -114 -45 -162 -90
-50 -48 -74 -88 -93 -152 l-12 -40 -1017 -3 -1016 -2 0 23 c0 13 -11 45 -25
73 -44 89 -127 159 -219 186 l-47 14 0 454 0 455 43 15 c125 45 202 118 234
219 l19 61 1013 0 c802 0 1013 -3 1016 -12z"/>
<path d="M2400 3194 c-71 -13 -123 -30 -200 -67 -115 -56 -228 -167 -287 -282
-68 -134 -94 -279 -73 -405 28 -166 87 -284 195 -392 76 -75 147 -120 247
-156 65 -23 88 -26 213 -26 159 -1 200 8 320 67 145 72 281 234 325 387 7 25
16 58 21 74 13 44 10 224 -5 286 -58 236 -216 407 -449 487 -71 24 -241 39
-307 27z m-16 -433 l121 -120 122 120 c89 87 128 119 146 119 30 0 97 -70 97
-102 0 -15 -38 -61 -120 -142 l-121 -119 121 -122 c78 -79 120 -129 120 -143
0 -12 -14 -37 -31 -57 -23 -26 -39 -35 -63 -35 -27 0 -48 17 -146 115 -63 63
-118 115 -122 115 -4 0 -60 -52 -124 -115 -135 -134 -153 -141 -210 -78 -19
20 -34 46 -34 57 0 11 48 68 120 140 l119 121 -119 121 c-83 83 -120 128 -120
143 0 30 70 101 100 101 16 0 61 -37 144 -119z"/>
<path d="M1490 2887 c-19 -6 -55 -32 -80 -57 -41 -40 -52 -62 -76 -147 -2 -7
-17 -13 -34 -13 -28 0 -30 -3 -30 -35 0 -31 3 -35 25 -35 22 0 25 -4 25 -35 0
-31 -3 -35 -26 -35 -23 0 -25 -3 -22 -37 3 -33 7 -38 31 -41 15 -2 27 -9 27
-17 0 -7 8 -36 17 -65 34 -107 150 -167 271 -142 72 15 78 22 64 71 l-12 39
-42 -9 c-67 -16 -123 -2 -158 37 -16 19 -30 39 -30 44 0 4 -3 15 -6 24 -5 13
7 16 73 18 l78 3 3 38 3 37 -80 0 -81 0 0 35 0 35 100 0 100 0 0 35 0 35 -95
0 c-103 0 -105 1 -80 54 29 60 121 92 189 67 22 -9 26 -7 35 21 18 52 14 64
-28 76 -47 14 -114 14 -161 -1z"/>
</g>
</svg>
