<?xml version="1.0" standalone="no"?>
<!DOCTYPE svg PUBLIC "-//W3C//DTD SVG 20010904//EN"
 "http://www.w3.org/TR/2001/REC-SVG-20010904/DTD/svg10.dtd">
<svg version="1.0" xmlns="http://www.w3.org/2000/svg"
 width="500.000000pt" height="500.000000pt" viewBox="0 0 500.000000 500.000000"
 preserveAspectRatio="xMidYMid meet">

<g transform="translate(0.000000,500.000000) scale(0.100000,-0.100000)"
fill="#000000" stroke="none">
<path d="M1037 3536 c-67 -24 -110 -71 -132 -140 -13 -43 -15 -169 -15 -902 0
-839 0 -853 21 -901 25 -58 51 -88 104 -116 l40 -22 1450 0 c1331 0 1452 1
1480 17 45 24 85 68 106 113 18 38 19 88 19 911 0 625 -3 881 -11 905 -18 51
-55 97 -102 122 l-42 22 -1440 2 c-1197 2 -1446 0 -1478 -11z m2493 -246 c0
-34 37 -119 71 -164 60 -78 154 -133 249 -145 l45 -6 0 -475 0 -475 -35 -3
c-147 -12 -299 -148 -329 -295 l-7 -32 -1022 -3 -1022 -2 -6 27 c-25 118 -109
224 -209 267 -73 31 -88 36 -120 36 l-35 0 0 479 0 478 48 5 c141 14 284 147
317 296 l7 32 1024 0 c1015 0 1024 0 1024 -20z"/>
<path d="M2400 3195 c-98 -17 -175 -45 -252 -91 -334 -203 -438 -648 -228
-979 89 -142 214 -236 390 -295 53 -18 88 -22 195 -22 107 0 142 4 195 22 242
81 392 233 471 475 29 89 32 285 6 378 -38 136 -104 244 -206 339 -105 98
-211 148 -366 174 -93 16 -105 16 -205 -1z m509 -360 c51 -26 55 -83 12 -141
-16 -21 -136 -146 -268 -276 -204 -203 -243 -238 -268 -238 -25 0 -55 24 -172
138 -139 135 -169 174 -156 209 9 27 35 54 61 64 37 14 82 -14 175 -110 l85
-88 213 211 c118 117 225 220 239 229 30 21 43 21 79 2z"/>
<path d="M1482 2861 c-83 -29 -146 -100 -177 -199 -4 -13 -14 -22 -23 -21 -45
4 -63 -2 -74 -26 -18 -41 3 -75 47 -75 34 0 35 -1 35 -40 0 -25 -5 -40 -12
-41 -7 -1 -17 -2 -23 -4 -5 -1 -17 -3 -26 -3 -20 -2 -30 -47 -18 -79 7 -19 16
-23 51 -23 43 0 44 -1 61 -49 20 -57 81 -124 134 -146 52 -22 140 -29 190 -16
49 13 65 46 41 83 -13 19 -24 22 -94 22 -88 1 -124 18 -157 75 l-18 31 83 0
c92 0 128 15 128 53 0 46 -13 52 -125 55 l-105 4 0 39 0 39 103 0 c67 0 107 4
115 12 15 15 16 75 0 84 -6 4 -50 8 -97 10 -47 1 -89 3 -94 3 -4 1 2 19 13 41
29 56 79 80 169 80 61 0 72 3 82 21 15 29 -2 66 -37 79 -39 15 -113 11 -172
-9z"/>
</g>
</svg>
